M48
; DRILL file {KiCad (5.1.9)-1} date 04/07/21 22:35:02
; FORMAT={-:-/ absolute / inch / decimal}
; #@! TF.CreationDate,2021-04-07T22:35:02-05:00
; #@! TF.GenerationSoftware,Kicad,Pcbnew,(5.1.9)-1
; #@! TF.FileFunction,Plated,1,2,PTH
FMAT,2
INCH
T1C0.0300
T2C0.0315
T3C0.0394
T4C0.0450
T5C0.0472
T6C0.0755
%
G90
G05
T1
X5.672Y-4.878
X5.7Y-3.3
X5.828Y-4.272
X5.984Y-4.466
X6.14Y-4.61
X6.2Y-2.4
X6.6Y-3.15
X6.6Y-4.75
X6.75Y-4.35
X6.9Y-4.9
X7.05Y-2.8
X7.076Y-4.774
X7.232Y-4.368
X7.35Y-4.6
X7.65Y-4.45
X7.8Y-4.25
T2
X4.25Y-3.95
X4.25Y-4.7374
X4.4Y-3.35
X4.6362Y-3.35
X4.9638Y-3.35
X5.2Y-3.35
X6.15Y-3.45
X6.15Y-3.55
X6.15Y-3.65
X6.15Y-3.75
X6.15Y-3.85
X6.15Y-3.95
X6.15Y-4.05
X6.45Y-3.45
X6.45Y-3.55
X6.45Y-3.65
X6.45Y-3.75
X6.45Y-3.85
X6.45Y-3.95
X6.45Y-4.05
X6.85Y-2.95
X6.85Y-3.1862
X6.85Y-3.4
X6.85Y-3.6362
X7.2Y-3.3
X7.2Y-3.4
X7.2Y-3.5
X7.2Y-3.6
X7.2Y-3.7
X7.2Y-3.8
X7.2Y-3.9
X7.2Y-4.0
X7.25Y-3.0
X7.4862Y-3.0
X7.5Y-3.3
X7.5Y-3.4
X7.5Y-3.5
X7.5Y-3.6
X7.5Y-3.7
X7.5Y-3.8
X7.5Y-3.9
X7.5Y-4.0
T3
X4.45Y-3.95
X4.45Y-4.45
T4
X3.65Y-2.15
X3.65Y-4.85
X4.8Y-2.7
X5.95Y-2.6
X6.45Y-2.2
X7.25Y-2.2
X7.45Y-2.6
X7.85Y-2.15
X7.85Y-4.85
T5
X4.55Y-2.4
X5.05Y-2.4
T6
X3.95Y-3.65
X3.95Y-3.95
X3.95Y-4.45
X3.95Y-4.75
T0
M30
