%TF.GenerationSoftware,KiCad,Pcbnew,(5.1.9)-1*%
%TF.CreationDate,2021-04-07T22:34:41-05:00*%
%TF.ProjectId,SCELBI-TTY-Interface,5343454c-4249-42d5-9454-592d496e7465,rev?*%
%TF.SameCoordinates,Original*%
%TF.FileFunction,Copper,L2,Bot*%
%TF.FilePolarity,Positive*%
%FSLAX46Y46*%
G04 Gerber Fmt 4.6, Leading zero omitted, Abs format (unit mm)*
G04 Created by KiCad (PCBNEW (5.1.9)-1) date 2021-04-07 22:34:41*
%MOMM*%
%LPD*%
G01*
G04 APERTURE LIST*
%TA.AperFunction,NonConductor*%
%ADD10C,0.127000*%
%TD*%
%TA.AperFunction,ComponentPad*%
%ADD11O,2.000000X2.000000*%
%TD*%
%TA.AperFunction,ComponentPad*%
%ADD12C,2.000000*%
%TD*%
%TA.AperFunction,ComponentPad*%
%ADD13O,2.400000X1.600000*%
%TD*%
%TA.AperFunction,ComponentPad*%
%ADD14O,2.400000X2.400000*%
%TD*%
%TA.AperFunction,ComponentPad*%
%ADD15C,2.400000*%
%TD*%
%TA.AperFunction,ConnectorPad*%
%ADD16R,2.540000X9.144000*%
%TD*%
%TA.AperFunction,ComponentPad*%
%ADD17C,3.429000*%
%TD*%
%TA.AperFunction,ComponentPad*%
%ADD18C,1.600000*%
%TD*%
%TA.AperFunction,ComponentPad*%
%ADD19O,1.600000X1.600000*%
%TD*%
%TA.AperFunction,ViaPad*%
%ADD20C,2.540000*%
%TD*%
%TA.AperFunction,ViaPad*%
%ADD21C,1.905000*%
%TD*%
%TA.AperFunction,Conductor*%
%ADD22C,1.524000*%
%TD*%
%TA.AperFunction,Conductor*%
%ADD23C,0.762000*%
%TD*%
G04 APERTURE END LIST*
D10*
X115291809Y-54395309D02*
X115291809Y-53887309D01*
X115170857Y-53887309D01*
X115098285Y-53911500D01*
X115049904Y-53959880D01*
X115025714Y-54008261D01*
X115001523Y-54105023D01*
X115001523Y-54177595D01*
X115025714Y-54274357D01*
X115049904Y-54322738D01*
X115098285Y-54371119D01*
X115170857Y-54395309D01*
X115291809Y-54395309D01*
X114783809Y-54129214D02*
X114614476Y-54129214D01*
X114541904Y-54395309D02*
X114783809Y-54395309D01*
X114783809Y-53887309D01*
X114541904Y-53887309D01*
X114348380Y-54371119D02*
X114275809Y-54395309D01*
X114154857Y-54395309D01*
X114106476Y-54371119D01*
X114082285Y-54346928D01*
X114058095Y-54298547D01*
X114058095Y-54250166D01*
X114082285Y-54201785D01*
X114106476Y-54177595D01*
X114154857Y-54153404D01*
X114251619Y-54129214D01*
X114300000Y-54105023D01*
X114324190Y-54080833D01*
X114348380Y-54032452D01*
X114348380Y-53984071D01*
X114324190Y-53935690D01*
X114300000Y-53911500D01*
X114251619Y-53887309D01*
X114130666Y-53887309D01*
X114058095Y-53911500D01*
X113840380Y-54395309D02*
X113840380Y-53887309D01*
X113332380Y-53911500D02*
X113380761Y-53887309D01*
X113453333Y-53887309D01*
X113525904Y-53911500D01*
X113574285Y-53959880D01*
X113598476Y-54008261D01*
X113622666Y-54105023D01*
X113622666Y-54177595D01*
X113598476Y-54274357D01*
X113574285Y-54322738D01*
X113525904Y-54371119D01*
X113453333Y-54395309D01*
X113404952Y-54395309D01*
X113332380Y-54371119D01*
X113308190Y-54346928D01*
X113308190Y-54177595D01*
X113404952Y-54177595D01*
X113090476Y-54395309D02*
X113090476Y-53887309D01*
X112800190Y-54395309D01*
X112800190Y-53887309D01*
X112558285Y-54346928D02*
X112534095Y-54371119D01*
X112558285Y-54395309D01*
X112582476Y-54371119D01*
X112558285Y-54346928D01*
X112558285Y-54395309D01*
X112558285Y-54080833D02*
X112534095Y-54105023D01*
X112558285Y-54129214D01*
X112582476Y-54105023D01*
X112558285Y-54080833D01*
X112558285Y-54129214D01*
X111929333Y-54395309D02*
X111929333Y-53887309D01*
X111760000Y-54250166D01*
X111590666Y-53887309D01*
X111590666Y-54395309D01*
X111348761Y-54395309D02*
X111348761Y-53887309D01*
X111106857Y-54395309D02*
X111106857Y-53887309D01*
X110816571Y-54395309D02*
X111034285Y-54105023D01*
X110816571Y-53887309D02*
X111106857Y-54177595D01*
X110598857Y-54129214D02*
X110429523Y-54129214D01*
X110356952Y-54395309D02*
X110598857Y-54395309D01*
X110598857Y-53887309D01*
X110356952Y-53887309D01*
X109800571Y-53887309D02*
X109679619Y-54395309D01*
X109582857Y-54032452D01*
X109486095Y-54395309D01*
X109365142Y-53887309D01*
X109171619Y-54395309D02*
X109171619Y-53887309D01*
X108687809Y-54395309D02*
X108929714Y-54395309D01*
X108929714Y-53887309D01*
X108276571Y-54395309D02*
X108518476Y-54395309D01*
X108518476Y-53887309D01*
X108107238Y-54129214D02*
X107937904Y-54129214D01*
X107865333Y-54395309D02*
X108107238Y-54395309D01*
X108107238Y-53887309D01*
X107865333Y-53887309D01*
X107381523Y-53911500D02*
X107429904Y-53887309D01*
X107502476Y-53887309D01*
X107575047Y-53911500D01*
X107623428Y-53959880D01*
X107647619Y-54008261D01*
X107671809Y-54105023D01*
X107671809Y-54177595D01*
X107647619Y-54274357D01*
X107623428Y-54322738D01*
X107575047Y-54371119D01*
X107502476Y-54395309D01*
X107454095Y-54395309D01*
X107381523Y-54371119D01*
X107357333Y-54346928D01*
X107357333Y-54177595D01*
X107454095Y-54177595D01*
X107163809Y-54250166D02*
X106921904Y-54250166D01*
X107212190Y-54395309D02*
X107042857Y-53887309D01*
X106873523Y-54395309D01*
X106462285Y-54395309D02*
X106704190Y-54395309D01*
X106704190Y-53887309D01*
X105905904Y-54201785D02*
X105518857Y-54201785D01*
X104938285Y-53887309D02*
X104817333Y-54395309D01*
X104720571Y-54032452D01*
X104623809Y-54395309D01*
X104502857Y-53887309D01*
X104357714Y-53887309D02*
X104236761Y-54395309D01*
X104140000Y-54032452D01*
X104043238Y-54395309D01*
X103922285Y-53887309D01*
X103777142Y-53887309D02*
X103656190Y-54395309D01*
X103559428Y-54032452D01*
X103462666Y-54395309D01*
X103341714Y-53887309D01*
X103148190Y-54346928D02*
X103124000Y-54371119D01*
X103148190Y-54395309D01*
X103172380Y-54371119D01*
X103148190Y-54346928D01*
X103148190Y-54395309D01*
X102954666Y-53887309D02*
X102833714Y-54395309D01*
X102736952Y-54032452D01*
X102640190Y-54395309D01*
X102519238Y-53887309D01*
X102325714Y-54395309D02*
X102325714Y-53887309D01*
X101841904Y-54395309D02*
X102083809Y-54395309D01*
X102083809Y-53887309D01*
X101430666Y-54395309D02*
X101672571Y-54395309D01*
X101672571Y-53887309D01*
X101261333Y-54129214D02*
X101092000Y-54129214D01*
X101019428Y-54395309D02*
X101261333Y-54395309D01*
X101261333Y-53887309D01*
X101019428Y-53887309D01*
X100535619Y-53911500D02*
X100584000Y-53887309D01*
X100656571Y-53887309D01*
X100729142Y-53911500D01*
X100777523Y-53959880D01*
X100801714Y-54008261D01*
X100825904Y-54105023D01*
X100825904Y-54177595D01*
X100801714Y-54274357D01*
X100777523Y-54322738D01*
X100729142Y-54371119D01*
X100656571Y-54395309D01*
X100608190Y-54395309D01*
X100535619Y-54371119D01*
X100511428Y-54346928D01*
X100511428Y-54177595D01*
X100608190Y-54177595D01*
X100317904Y-54250166D02*
X100076000Y-54250166D01*
X100366285Y-54395309D02*
X100196952Y-53887309D01*
X100027619Y-54395309D01*
X99616380Y-54395309D02*
X99858285Y-54395309D01*
X99858285Y-53887309D01*
X99447047Y-54346928D02*
X99422857Y-54371119D01*
X99447047Y-54395309D01*
X99471238Y-54371119D01*
X99447047Y-54346928D01*
X99447047Y-54395309D01*
X99205142Y-54395309D02*
X99205142Y-53887309D01*
X98914857Y-54395309D01*
X98914857Y-53887309D01*
X98672952Y-54129214D02*
X98503619Y-54129214D01*
X98431047Y-54395309D02*
X98672952Y-54395309D01*
X98672952Y-53887309D01*
X98431047Y-53887309D01*
X98285904Y-53887309D02*
X97995619Y-53887309D01*
X98140761Y-54395309D02*
X98140761Y-53887309D01*
X116791619Y-55284309D02*
X117033523Y-55284309D01*
X117033523Y-54776309D01*
X116646476Y-55139166D02*
X116404571Y-55139166D01*
X116694857Y-55284309D02*
X116525523Y-54776309D01*
X116356190Y-55284309D01*
X116090095Y-55042404D02*
X116090095Y-55284309D01*
X116259428Y-54776309D02*
X116090095Y-55042404D01*
X115920761Y-54776309D01*
X115654666Y-54776309D02*
X115557904Y-54776309D01*
X115509523Y-54800500D01*
X115461142Y-54848880D01*
X115436952Y-54945642D01*
X115436952Y-55114976D01*
X115461142Y-55211738D01*
X115509523Y-55260119D01*
X115557904Y-55284309D01*
X115654666Y-55284309D01*
X115703047Y-55260119D01*
X115751428Y-55211738D01*
X115775619Y-55114976D01*
X115775619Y-54945642D01*
X115751428Y-54848880D01*
X115703047Y-54800500D01*
X115654666Y-54776309D01*
X115219238Y-54776309D02*
X115219238Y-55187547D01*
X115195047Y-55235928D01*
X115170857Y-55260119D01*
X115122476Y-55284309D01*
X115025714Y-55284309D01*
X114977333Y-55260119D01*
X114953142Y-55235928D01*
X114928952Y-55187547D01*
X114928952Y-54776309D01*
X114759619Y-54776309D02*
X114469333Y-54776309D01*
X114614476Y-55284309D02*
X114614476Y-54776309D01*
X114299999Y-55235928D02*
X114275809Y-55260119D01*
X114299999Y-55284309D01*
X114324190Y-55260119D01*
X114299999Y-55235928D01*
X114299999Y-55284309D01*
X114299999Y-54969833D02*
X114275809Y-54994023D01*
X114299999Y-55018214D01*
X114324190Y-54994023D01*
X114299999Y-54969833D01*
X114299999Y-55018214D01*
X113671047Y-55284309D02*
X113671047Y-54776309D01*
X113477523Y-54776309D01*
X113429142Y-54800500D01*
X113404952Y-54824690D01*
X113380761Y-54873071D01*
X113380761Y-54945642D01*
X113404952Y-54994023D01*
X113429142Y-55018214D01*
X113477523Y-55042404D01*
X113671047Y-55042404D01*
X113163047Y-55018214D02*
X112993714Y-55018214D01*
X112921142Y-55284309D02*
X113163047Y-55284309D01*
X113163047Y-54776309D01*
X112921142Y-54776309D01*
X112775999Y-54776309D02*
X112485714Y-54776309D01*
X112630857Y-55284309D02*
X112630857Y-54776309D01*
X112316380Y-55018214D02*
X112147047Y-55018214D01*
X112074476Y-55284309D02*
X112316380Y-55284309D01*
X112316380Y-54776309D01*
X112074476Y-54776309D01*
X111566476Y-55284309D02*
X111735809Y-55042404D01*
X111856761Y-55284309D02*
X111856761Y-54776309D01*
X111663238Y-54776309D01*
X111614857Y-54800500D01*
X111590666Y-54824690D01*
X111566476Y-54873071D01*
X111566476Y-54945642D01*
X111590666Y-54994023D01*
X111614857Y-55018214D01*
X111663238Y-55042404D01*
X111856761Y-55042404D01*
X110961714Y-55284309D02*
X110961714Y-54776309D01*
X110792380Y-55139166D01*
X110623047Y-54776309D01*
X110623047Y-55284309D01*
X110381142Y-55284309D02*
X110381142Y-54776309D01*
X109897333Y-55284309D02*
X110139238Y-55284309D01*
X110139238Y-54776309D01*
X109486095Y-55284309D02*
X109727999Y-55284309D01*
X109727999Y-54776309D01*
X109316761Y-55018214D02*
X109147428Y-55018214D01*
X109074857Y-55284309D02*
X109316761Y-55284309D01*
X109316761Y-54776309D01*
X109074857Y-54776309D01*
X108566857Y-55284309D02*
X108736190Y-55042404D01*
X108857142Y-55284309D02*
X108857142Y-54776309D01*
X108663619Y-54776309D01*
X108615238Y-54800500D01*
X108591047Y-54824690D01*
X108566857Y-54873071D01*
X108566857Y-54945642D01*
X108591047Y-54994023D01*
X108615238Y-55018214D01*
X108663619Y-55042404D01*
X108857142Y-55042404D01*
X107962095Y-55090785D02*
X107575047Y-55090785D01*
X106994476Y-54776309D02*
X106873523Y-55284309D01*
X106776761Y-54921452D01*
X106679999Y-55284309D01*
X106559047Y-54776309D01*
X106413904Y-54776309D02*
X106292952Y-55284309D01*
X106196190Y-54921452D01*
X106099428Y-55284309D01*
X105978476Y-54776309D01*
X105833333Y-54776309D02*
X105712380Y-55284309D01*
X105615619Y-54921452D01*
X105518857Y-55284309D01*
X105397904Y-54776309D01*
X105204380Y-55235928D02*
X105180190Y-55260119D01*
X105204380Y-55284309D01*
X105228571Y-55260119D01*
X105204380Y-55235928D01*
X105204380Y-55284309D01*
X104962476Y-55284309D02*
X104962476Y-54776309D01*
X104768952Y-54776309D01*
X104720571Y-54800500D01*
X104696380Y-54824690D01*
X104672190Y-54873071D01*
X104672190Y-54945642D01*
X104696380Y-54994023D01*
X104720571Y-55018214D01*
X104768952Y-55042404D01*
X104962476Y-55042404D01*
X104454476Y-55018214D02*
X104285142Y-55018214D01*
X104212571Y-55284309D02*
X104454476Y-55284309D01*
X104454476Y-54776309D01*
X104212571Y-54776309D01*
X104067428Y-54776309D02*
X103777142Y-54776309D01*
X103922285Y-55284309D02*
X103922285Y-54776309D01*
X103607809Y-55018214D02*
X103438476Y-55018214D01*
X103365904Y-55284309D02*
X103607809Y-55284309D01*
X103607809Y-54776309D01*
X103365904Y-54776309D01*
X102857904Y-55284309D02*
X103027238Y-55042404D01*
X103148190Y-55284309D02*
X103148190Y-54776309D01*
X102954666Y-54776309D01*
X102906285Y-54800500D01*
X102882095Y-54824690D01*
X102857904Y-54873071D01*
X102857904Y-54945642D01*
X102882095Y-54994023D01*
X102906285Y-55018214D01*
X102954666Y-55042404D01*
X103148190Y-55042404D01*
X102640190Y-55284309D02*
X102640190Y-54776309D01*
X102470857Y-55139166D01*
X102301523Y-54776309D01*
X102301523Y-55284309D01*
X102059619Y-55284309D02*
X102059619Y-54776309D01*
X101575809Y-55284309D02*
X101817714Y-55284309D01*
X101817714Y-54776309D01*
X101164571Y-55284309D02*
X101406476Y-55284309D01*
X101406476Y-54776309D01*
X100995238Y-55018214D02*
X100825904Y-55018214D01*
X100753333Y-55284309D02*
X100995238Y-55284309D01*
X100995238Y-54776309D01*
X100753333Y-54776309D01*
X100245333Y-55284309D02*
X100414666Y-55042404D01*
X100535619Y-55284309D02*
X100535619Y-54776309D01*
X100342095Y-54776309D01*
X100293714Y-54800500D01*
X100269523Y-54824690D01*
X100245333Y-54873071D01*
X100245333Y-54945642D01*
X100269523Y-54994023D01*
X100293714Y-55018214D01*
X100342095Y-55042404D01*
X100535619Y-55042404D01*
X100027619Y-55235928D02*
X100003428Y-55260119D01*
X100027619Y-55284309D01*
X100051809Y-55260119D01*
X100027619Y-55235928D01*
X100027619Y-55284309D01*
X99785714Y-55018214D02*
X99616380Y-55018214D01*
X99543809Y-55284309D02*
X99785714Y-55284309D01*
X99785714Y-54776309D01*
X99543809Y-54776309D01*
X99326095Y-55284309D02*
X99326095Y-54776309D01*
X99035809Y-55284309D01*
X99035809Y-54776309D01*
X98527809Y-54800500D02*
X98576190Y-54776309D01*
X98648761Y-54776309D01*
X98721333Y-54800500D01*
X98769714Y-54848880D01*
X98793904Y-54897261D01*
X98818095Y-54994023D01*
X98818095Y-55066595D01*
X98793904Y-55163357D01*
X98769714Y-55211738D01*
X98721333Y-55260119D01*
X98648761Y-55284309D01*
X98600380Y-55284309D01*
X98527809Y-55260119D01*
X98503619Y-55235928D01*
X98503619Y-55066595D01*
X98600380Y-55066595D01*
X98285904Y-55284309D02*
X98285904Y-54776309D01*
X98043999Y-55284309D02*
X98043999Y-54776309D01*
X97753714Y-55284309D01*
X97753714Y-54776309D01*
X97511809Y-55018214D02*
X97342476Y-55018214D01*
X97269904Y-55284309D02*
X97511809Y-55284309D01*
X97511809Y-54776309D01*
X97269904Y-54776309D01*
X97052190Y-55018214D02*
X96882857Y-55018214D01*
X96810285Y-55284309D02*
X97052190Y-55284309D01*
X97052190Y-54776309D01*
X96810285Y-54776309D01*
X96302285Y-55284309D02*
X96471619Y-55042404D01*
X96592571Y-55284309D02*
X96592571Y-54776309D01*
X96399047Y-54776309D01*
X96350666Y-54800500D01*
X96326476Y-54824690D01*
X96302285Y-54873071D01*
X96302285Y-54945642D01*
X96326476Y-54994023D01*
X96350666Y-55018214D01*
X96399047Y-55042404D01*
X96592571Y-55042404D01*
D11*
%TO.P,VR1,2*%
%TO.N,GND*%
X113030000Y-113030000D03*
D12*
%TO.P,VR1,1*%
%TO.N,/VCC*%
X113030000Y-100330000D03*
%TD*%
D13*
%TO.P,Z1,16*%
%TO.N,/VCC*%
X190500000Y-83820000D03*
%TO.P,Z1,8*%
%TO.N,/RTS*%
X182880000Y-101600000D03*
%TO.P,Z1,15*%
%TO.N,GND*%
X190500000Y-86360000D03*
%TO.P,Z1,7*%
%TO.N,/TxD*%
X182880000Y-99060000D03*
%TO.P,Z1,14*%
%TO.N,/RxD*%
X190500000Y-88900000D03*
%TO.P,Z1,6*%
%TO.N,/V-*%
X182880000Y-96520000D03*
%TO.P,Z1,13*%
%TO.N,/DTR*%
X190500000Y-91440000D03*
%TO.P,Z1,5*%
%TO.N,/C2-*%
X182880000Y-93980000D03*
%TO.P,Z1,12*%
%TO.N,/Rx*%
X190500000Y-93980000D03*
%TO.P,Z1,4*%
%TO.N,Net-(C6-Pad1)*%
X182880000Y-91440000D03*
%TO.P,Z1,11*%
%TO.N,GND*%
X190500000Y-96520000D03*
%TO.P,Z1,3*%
%TO.N,/C1-*%
X182880000Y-88900000D03*
%TO.P,Z1,10*%
%TO.N,/TxIn*%
X190500000Y-99060000D03*
%TO.P,Z1,2*%
%TO.N,/V+*%
X182880000Y-86360000D03*
%TO.P,Z1,9*%
%TO.N,Net-(Z1-Pad9)*%
X190500000Y-101600000D03*
%TO.P,Z1,1*%
%TO.N,/C1+*%
X182880000Y-83820000D03*
%TD*%
%TO.P,Z2,14*%
%TO.N,/VCC*%
X163830000Y-87630000D03*
%TO.P,Z2,7*%
%TO.N,GND*%
X156210000Y-102870000D03*
%TO.P,Z2,13*%
%TO.N,/PullUp*%
X163830000Y-90170000D03*
%TO.P,Z2,6*%
%TO.N,Net-(Z2-Pad6)*%
X156210000Y-100330000D03*
%TO.P,Z2,12*%
%TO.N,/STRB*%
X163830000Y-92710000D03*
%TO.P,Z2,5*%
%TO.N,Net-(Z2-Pad5)*%
X156210000Y-97790000D03*
%TO.P,Z2,11*%
%TO.N,/Tx*%
X163830000Y-95250000D03*
%TO.P,Z2,4*%
%TO.N,Net-(Z2-Pad4)*%
X156210000Y-95250000D03*
%TO.P,Z2,10*%
%TO.N,/PullUp*%
X163830000Y-97790000D03*
%TO.P,Z2,3*%
%TO.N,Net-(Z2-Pad3)*%
X156210000Y-92710000D03*
%TO.P,Z2,9*%
%TO.N,/TxIn*%
X163830000Y-100330000D03*
%TO.P,Z2,2*%
%TO.N,Net-(Z2-Pad2)*%
X156210000Y-90170000D03*
%TO.P,Z2,8*%
%TO.N,Net-(Z2-Pad8)*%
X163830000Y-102870000D03*
%TO.P,Z2,1*%
%TO.N,Net-(Z2-Pad1)*%
X156210000Y-87630000D03*
%TD*%
D14*
%TO.P,R1,2*%
%TO.N,/PullUp*%
X128270000Y-60960000D03*
D15*
%TO.P,R1,1*%
%TO.N,/VCC*%
X115570000Y-60960000D03*
%TD*%
D16*
%TO.P,J1,Z*%
%TO.N,Net-(J1-PadZ)*%
X187655200Y-131368800D03*
%TO.P,J1,Y*%
%TO.N,/STRB*%
X183692800Y-131368800D03*
%TO.P,J1,X*%
%TO.N,/Tx*%
X179730400Y-131368800D03*
%TO.P,J1,W*%
%TO.N,Net-(J1-PadW)*%
X175768000Y-131368800D03*
%TO.P,J1,V*%
%TO.N,Net-(J1-PadV)*%
X171805600Y-131368800D03*
%TO.P,J1,U*%
%TO.N,Net-(J1-PadU)*%
X167843200Y-131368800D03*
%TO.P,J1,T*%
%TO.N,Net-(J1-PadT)*%
X163880800Y-131368800D03*
%TO.P,J1,S*%
%TO.N,Net-(J1-PadS)*%
X159918400Y-131368800D03*
%TO.P,J1,R*%
%TO.N,/Rx*%
X155956000Y-131368800D03*
%TO.P,J1,P*%
%TO.N,/DTR*%
X151993600Y-131368800D03*
%TO.P,J1,N*%
%TO.N,/RxD*%
X148031200Y-131368800D03*
%TO.P,J1,M*%
%TO.N,/TxD*%
X144068800Y-131368800D03*
%TO.P,J1,L*%
%TO.N,Net-(J1-PadL)*%
X140106400Y-131368800D03*
%TO.P,J1,K*%
%TO.N,/RTS*%
X136144000Y-131368800D03*
%TO.P,J1,J*%
%TO.N,Net-(J1-PadJ)*%
X132181600Y-131368800D03*
%TO.P,J1,H*%
%TO.N,Net-(J1-PadH)*%
X128219200Y-131368800D03*
%TO.P,J1,F*%
%TO.N,Net-(J1-PadF)*%
X124256800Y-131368800D03*
%TO.P,J1,E*%
%TO.N,Net-(J1-PadE)*%
X120294400Y-131368800D03*
%TO.P,J1,D*%
%TO.N,Net-(J1-PadD)*%
X116332000Y-131368800D03*
%TO.P,J1,C*%
%TO.N,GND*%
X112369600Y-131368800D03*
%TO.P,J1,B*%
%TO.N,Net-(J1-PadB)*%
X108407200Y-131368800D03*
%TO.P,J1,A*%
%TO.N,+5V*%
X104444800Y-131368800D03*
%TD*%
D17*
%TO.P,F1,2*%
%TO.N,+5V*%
X100330000Y-120650000D03*
X100330000Y-113030000D03*
%TO.P,F1,1*%
%TO.N,/VCC*%
X100330000Y-100330000D03*
X100330000Y-92710000D03*
%TD*%
D18*
%TO.P,C6,2*%
%TO.N,/C2-*%
X173990000Y-92360000D03*
%TO.P,C6,1*%
%TO.N,Net-(C6-Pad1)*%
X173990000Y-86360000D03*
%TD*%
%TO.P,C5,2*%
%TO.N,GND*%
X126080000Y-85090000D03*
%TO.P,C5,1*%
%TO.N,/V-*%
X132080000Y-85090000D03*
%TD*%
%TO.P,C4,2*%
%TO.N,/C1-*%
X173990000Y-80930000D03*
%TO.P,C4,1*%
%TO.N,/C1+*%
X173990000Y-74930000D03*
%TD*%
%TO.P,C3,2*%
%TO.N,/V+*%
X117760000Y-85090000D03*
%TO.P,C3,1*%
%TO.N,/VCC*%
X111760000Y-85090000D03*
%TD*%
%TO.P,C2,2*%
%TO.N,GND*%
X190150000Y-76200000D03*
%TO.P,C2,1*%
%TO.N,/VCC*%
X184150000Y-76200000D03*
%TD*%
D19*
%TO.P,C1,2*%
%TO.N,GND*%
X107950000Y-120330000D03*
D18*
%TO.P,C1,1*%
%TO.N,/VCC*%
X107950000Y-100330000D03*
%TD*%
D20*
%TO.N,*%
X199390000Y-123190000D03*
X92710000Y-123190000D03*
X199390000Y-54610000D03*
X92710000Y-54610000D03*
%TO.N,GND*%
X121920000Y-68580000D03*
X189230000Y-66040000D03*
X151130000Y-66040000D03*
D21*
%TO.N,/V+*%
X179070000Y-71120000D03*
%TO.N,/V-*%
X167640000Y-80010000D03*
%TO.N,/RTS*%
X144780000Y-83820000D03*
%TO.N,/TxD*%
X144068800Y-123901200D03*
X175260000Y-124460000D03*
%TO.N,/RxD*%
X198120000Y-107950000D03*
X148031200Y-108508800D03*
%TO.N,/DTR*%
X151993600Y-113436400D03*
X194310000Y-113030000D03*
%TO.N,/Rx*%
X186690000Y-116840000D03*
X155956000Y-117094000D03*
%TO.N,/Tx*%
X167640000Y-120650000D03*
X179730400Y-121259600D03*
%TO.N,/STRB*%
X171450000Y-110490000D03*
X183692800Y-110947200D03*
%TO.N,/PullUp*%
X157480000Y-60960000D03*
D20*
%TO.N,/VCC*%
X184150000Y-55880000D03*
X163830000Y-55880000D03*
%TD*%
D22*
%TO.N,GND*%
X112369600Y-124749600D02*
X107950000Y-120330000D01*
X112369600Y-131368800D02*
X112369600Y-124749600D01*
X107950000Y-118110000D02*
X107950000Y-120330000D01*
X113030000Y-113030000D02*
X107950000Y-118110000D01*
X113030000Y-113030000D02*
X120650000Y-105410000D01*
X120650000Y-105410000D02*
X121920000Y-104140000D01*
X121920000Y-68580000D02*
X121920000Y-68580000D01*
X190500000Y-86360000D02*
X193040000Y-86360000D01*
X193040000Y-86360000D02*
X194310000Y-85090000D01*
X194310000Y-80360000D02*
X190150000Y-76200000D01*
X194310000Y-85090000D02*
X194310000Y-80360000D01*
X189230000Y-75280000D02*
X190150000Y-76200000D01*
X189230000Y-66040000D02*
X189230000Y-75280000D01*
X156210000Y-102870000D02*
X153670000Y-102870000D01*
X153670000Y-102870000D02*
X151130000Y-100330000D01*
X151130000Y-100330000D02*
X151130000Y-66040000D01*
X121920000Y-85090000D02*
X121920000Y-68580000D01*
X126080000Y-85090000D02*
X121920000Y-85090000D01*
X121920000Y-104140000D02*
X121920000Y-85090000D01*
%TO.N,+5V*%
X104444800Y-124764800D02*
X100330000Y-120650000D01*
X104444800Y-131368800D02*
X104444800Y-124764800D01*
X100330000Y-120650000D02*
X100330000Y-113030000D01*
D23*
%TO.N,/V+*%
X182880000Y-86360000D02*
X180340000Y-86360000D01*
X180340000Y-86360000D02*
X179070000Y-85090000D01*
X179070000Y-85090000D02*
X179070000Y-71120000D01*
X179070000Y-71120000D02*
X179070000Y-71120000D01*
%TO.N,/V-*%
X182880000Y-96520000D02*
X171450000Y-96520000D01*
X171450000Y-96520000D02*
X167640000Y-92710000D01*
X167640000Y-92710000D02*
X167640000Y-80010000D01*
%TO.N,/RTS*%
X136144000Y-131368800D02*
X136144000Y-97536000D01*
X136144000Y-92456000D02*
X136144000Y-131368800D01*
X144780000Y-83820000D02*
X136144000Y-92456000D01*
%TO.N,/TxD*%
X144068800Y-131368800D02*
X144068800Y-123901200D01*
X182880000Y-99060000D02*
X175260000Y-106680000D01*
X175260000Y-106680000D02*
X175260000Y-119380000D01*
X175260000Y-119380000D02*
X175260000Y-124460000D01*
X175260000Y-124460000D02*
X175260000Y-124460000D01*
%TO.N,/RxD*%
X148031200Y-131368800D02*
X148031200Y-112471200D01*
X190500000Y-88900000D02*
X195580000Y-88900000D01*
X195580000Y-88900000D02*
X198120000Y-91440000D01*
X198120000Y-91440000D02*
X198120000Y-107950000D01*
X148031200Y-112471200D02*
X148031200Y-108508800D01*
%TO.N,/DTR*%
X151993600Y-131368800D02*
X151993600Y-113436400D01*
X190500000Y-91440000D02*
X193040000Y-91440000D01*
X193040000Y-91440000D02*
X194310000Y-92710000D01*
X194310000Y-92710000D02*
X194310000Y-113030000D01*
%TO.N,/Rx*%
X155956000Y-131368800D02*
X155956000Y-117094000D01*
X190500000Y-93980000D02*
X187960000Y-93980000D01*
X187960000Y-93980000D02*
X186690000Y-95250000D01*
X186690000Y-95250000D02*
X186690000Y-116840000D01*
%TO.N,/Tx*%
X163830000Y-95250000D02*
X167640000Y-99060000D01*
X167640000Y-99060000D02*
X167640000Y-120650000D01*
X179730400Y-131368800D02*
X179730400Y-121259600D01*
X167640000Y-120650000D02*
X167640000Y-120650000D01*
%TO.N,/STRB*%
X183692800Y-131368800D02*
X183692800Y-110947200D01*
X163830000Y-92710000D02*
X171450000Y-100330000D01*
X171450000Y-100330000D02*
X171450000Y-110490000D01*
X171450000Y-110490000D02*
X171450000Y-110490000D01*
%TO.N,/PullUp*%
X163830000Y-97790000D02*
X162560000Y-97790000D01*
X162560000Y-97790000D02*
X160020000Y-95250000D01*
X161290000Y-90170000D02*
X160020000Y-91440000D01*
X160020000Y-91440000D02*
X160020000Y-90170000D01*
X160020000Y-95250000D02*
X160020000Y-91440000D01*
X163830000Y-90170000D02*
X161290000Y-90170000D01*
X161290000Y-90170000D02*
X160020000Y-90170000D01*
X161290000Y-90170000D02*
X160020000Y-88900000D01*
X160020000Y-90170000D02*
X160020000Y-88900000D01*
X157480000Y-68580000D02*
X157480000Y-60960000D01*
X160020000Y-71120000D02*
X157480000Y-68580000D01*
X160020000Y-88900000D02*
X160020000Y-71120000D01*
D22*
%TO.N,/VCC*%
X100330000Y-100330000D02*
X100330000Y-92710000D01*
X100330000Y-100330000D02*
X107950000Y-100330000D01*
X107950000Y-100330000D02*
X113030000Y-100330000D01*
X100330000Y-76200000D02*
X115570000Y-60960000D01*
X100330000Y-92710000D02*
X100330000Y-76200000D01*
X190500000Y-82550000D02*
X184150000Y-76200000D01*
X190500000Y-83820000D02*
X190500000Y-82550000D01*
X184150000Y-76200000D02*
X184150000Y-55880000D01*
X163830000Y-87630000D02*
X163830000Y-60960000D01*
X163830000Y-60960000D02*
X163830000Y-55880000D01*
X104140000Y-92710000D02*
X111760000Y-85090000D01*
X100330000Y-92710000D02*
X104140000Y-92710000D01*
%TD*%
M02*
