%TF.GenerationSoftware,KiCad,Pcbnew,(5.1.9)-1*%
%TF.CreationDate,2021-04-07T22:34:41-05:00*%
%TF.ProjectId,SCELBI-TTY-Interface,5343454c-4249-42d5-9454-592d496e7465,rev?*%
%TF.SameCoordinates,Original*%
%TF.FileFunction,Copper,L1,Top*%
%TF.FilePolarity,Positive*%
%FSLAX46Y46*%
G04 Gerber Fmt 4.6, Leading zero omitted, Abs format (unit mm)*
G04 Created by KiCad (PCBNEW (5.1.9)-1) date 2021-04-07 22:34:41*
%MOMM*%
%LPD*%
G01*
G04 APERTURE LIST*
%TA.AperFunction,NonConductor*%
%ADD10C,0.150000*%
%TD*%
%TA.AperFunction,NonConductor*%
%ADD11C,0.300000*%
%TD*%
%TA.AperFunction,ComponentPad*%
%ADD12O,2.000000X2.000000*%
%TD*%
%TA.AperFunction,ComponentPad*%
%ADD13C,2.000000*%
%TD*%
%TA.AperFunction,ComponentPad*%
%ADD14O,2.400000X1.600000*%
%TD*%
%TA.AperFunction,ComponentPad*%
%ADD15O,2.400000X2.400000*%
%TD*%
%TA.AperFunction,ComponentPad*%
%ADD16C,2.400000*%
%TD*%
%TA.AperFunction,ConnectorPad*%
%ADD17R,2.540000X9.144000*%
%TD*%
%TA.AperFunction,ComponentPad*%
%ADD18C,3.429000*%
%TD*%
%TA.AperFunction,ComponentPad*%
%ADD19C,1.600000*%
%TD*%
%TA.AperFunction,ComponentPad*%
%ADD20O,1.600000X1.600000*%
%TD*%
%TA.AperFunction,ViaPad*%
%ADD21C,2.540000*%
%TD*%
%TA.AperFunction,ViaPad*%
%ADD22C,1.905000*%
%TD*%
%TA.AperFunction,Conductor*%
%ADD23C,0.250000*%
%TD*%
%TA.AperFunction,Conductor*%
%ADD24C,0.762000*%
%TD*%
%TA.AperFunction,Conductor*%
%ADD25C,1.524000*%
%TD*%
%TA.AperFunction,NonConductor*%
%ADD26C,0.025400*%
%TD*%
%TA.AperFunction,NonConductor*%
%ADD27C,0.100000*%
%TD*%
G04 APERTURE END LIST*
D10*
X160051904Y-110275714D02*
X160051904Y-110942380D01*
X159813809Y-109894761D02*
X159575714Y-110609047D01*
X160194761Y-110609047D01*
X161099523Y-110942380D02*
X160528095Y-110942380D01*
X160813809Y-110942380D02*
X160813809Y-109942380D01*
X160718571Y-110085238D01*
X160623333Y-110180476D01*
X160528095Y-110228095D01*
X161718571Y-109942380D02*
X161813809Y-109942380D01*
X161909047Y-109990000D01*
X161956666Y-110037619D01*
X162004285Y-110132857D01*
X162051904Y-110323333D01*
X162051904Y-110561428D01*
X162004285Y-110751904D01*
X161956666Y-110847142D01*
X161909047Y-110894761D01*
X161813809Y-110942380D01*
X161718571Y-110942380D01*
X161623333Y-110894761D01*
X161575714Y-110847142D01*
X161528095Y-110751904D01*
X161480476Y-110561428D01*
X161480476Y-110323333D01*
X161528095Y-110132857D01*
X161575714Y-110037619D01*
X161623333Y-109990000D01*
X161718571Y-109942380D01*
X162909047Y-110275714D02*
X162909047Y-110942380D01*
X162670952Y-109894761D02*
X162432857Y-110609047D01*
X163051904Y-110609047D01*
D11*
X153078571Y-87201428D02*
X153078571Y-88058571D01*
X153078571Y-87630000D02*
X151578571Y-87630000D01*
X151792857Y-87772857D01*
X151935714Y-87915714D01*
X152007142Y-88058571D01*
X181018571Y-83391428D02*
X181018571Y-84248571D01*
X181018571Y-83820000D02*
X179518571Y-83820000D01*
X179732857Y-83962857D01*
X179875714Y-84105714D01*
X179947142Y-84248571D01*
X151578571Y-95194285D02*
X151578571Y-94194285D01*
X153078571Y-95194285D01*
X153078571Y-94194285D01*
X151721428Y-93694285D02*
X151650000Y-93622857D01*
X151578571Y-93480000D01*
X151578571Y-93122857D01*
X151650000Y-92980000D01*
X151721428Y-92908571D01*
X151864285Y-92837142D01*
X152007142Y-92837142D01*
X152221428Y-92908571D01*
X153078571Y-93765714D01*
X153078571Y-92837142D01*
X178248571Y-100274285D02*
X178248571Y-99274285D01*
X179748571Y-100274285D01*
X179748571Y-99274285D01*
X179748571Y-97917142D02*
X179748571Y-98774285D01*
X179748571Y-98345714D02*
X178248571Y-98345714D01*
X178462857Y-98488571D01*
X178605714Y-98631428D01*
X178677142Y-98774285D01*
D12*
%TO.P,VR1,2*%
%TO.N,GND*%
X113030000Y-113030000D03*
D13*
%TO.P,VR1,1*%
%TO.N,/VCC*%
X113030000Y-100330000D03*
%TD*%
D14*
%TO.P,Z1,16*%
%TO.N,/VCC*%
X190500000Y-83820000D03*
%TO.P,Z1,8*%
%TO.N,/RTS*%
X182880000Y-101600000D03*
%TO.P,Z1,15*%
%TO.N,GND*%
X190500000Y-86360000D03*
%TO.P,Z1,7*%
%TO.N,/TxD*%
X182880000Y-99060000D03*
%TO.P,Z1,14*%
%TO.N,/RxD*%
X190500000Y-88900000D03*
%TO.P,Z1,6*%
%TO.N,/V-*%
X182880000Y-96520000D03*
%TO.P,Z1,13*%
%TO.N,/DTR*%
X190500000Y-91440000D03*
%TO.P,Z1,5*%
%TO.N,/C2-*%
X182880000Y-93980000D03*
%TO.P,Z1,12*%
%TO.N,/Rx*%
X190500000Y-93980000D03*
%TO.P,Z1,4*%
%TO.N,Net-(C6-Pad1)*%
X182880000Y-91440000D03*
%TO.P,Z1,11*%
%TO.N,GND*%
X190500000Y-96520000D03*
%TO.P,Z1,3*%
%TO.N,/C1-*%
X182880000Y-88900000D03*
%TO.P,Z1,10*%
%TO.N,/TxIn*%
X190500000Y-99060000D03*
%TO.P,Z1,2*%
%TO.N,/V+*%
X182880000Y-86360000D03*
%TO.P,Z1,9*%
%TO.N,Net-(Z1-Pad9)*%
X190500000Y-101600000D03*
%TO.P,Z1,1*%
%TO.N,/C1+*%
X182880000Y-83820000D03*
%TD*%
%TO.P,Z2,14*%
%TO.N,/VCC*%
X163830000Y-87630000D03*
%TO.P,Z2,7*%
%TO.N,GND*%
X156210000Y-102870000D03*
%TO.P,Z2,13*%
%TO.N,/PullUp*%
X163830000Y-90170000D03*
%TO.P,Z2,6*%
%TO.N,Net-(Z2-Pad6)*%
X156210000Y-100330000D03*
%TO.P,Z2,12*%
%TO.N,/STRB*%
X163830000Y-92710000D03*
%TO.P,Z2,5*%
%TO.N,Net-(Z2-Pad5)*%
X156210000Y-97790000D03*
%TO.P,Z2,11*%
%TO.N,/Tx*%
X163830000Y-95250000D03*
%TO.P,Z2,4*%
%TO.N,Net-(Z2-Pad4)*%
X156210000Y-95250000D03*
%TO.P,Z2,10*%
%TO.N,/PullUp*%
X163830000Y-97790000D03*
%TO.P,Z2,3*%
%TO.N,Net-(Z2-Pad3)*%
X156210000Y-92710000D03*
%TO.P,Z2,9*%
%TO.N,/TxIn*%
X163830000Y-100330000D03*
%TO.P,Z2,2*%
%TO.N,Net-(Z2-Pad2)*%
X156210000Y-90170000D03*
%TO.P,Z2,8*%
%TO.N,Net-(Z2-Pad8)*%
X163830000Y-102870000D03*
%TO.P,Z2,1*%
%TO.N,Net-(Z2-Pad1)*%
X156210000Y-87630000D03*
%TD*%
D15*
%TO.P,R1,2*%
%TO.N,/PullUp*%
X128270000Y-60960000D03*
D16*
%TO.P,R1,1*%
%TO.N,/VCC*%
X115570000Y-60960000D03*
%TD*%
D17*
%TO.P,J1,22*%
%TO.N,Net-(J1-Pad22)*%
X187655200Y-131368800D03*
%TO.P,J1,21*%
%TO.N,Net-(J1-Pad21)*%
X183692800Y-131368800D03*
%TO.P,J1,20*%
%TO.N,Net-(J1-Pad20)*%
X179730400Y-131368800D03*
%TO.P,J1,19*%
%TO.N,Net-(J1-Pad19)*%
X175768000Y-131368800D03*
%TO.P,J1,18*%
%TO.N,Net-(J1-Pad18)*%
X171805600Y-131368800D03*
%TO.P,J1,17*%
%TO.N,Net-(J1-Pad17)*%
X167843200Y-131368800D03*
%TO.P,J1,16*%
%TO.N,Net-(J1-Pad16)*%
X163880800Y-131368800D03*
%TO.P,J1,15*%
%TO.N,Net-(J1-Pad15)*%
X159918400Y-131368800D03*
%TO.P,J1,14*%
%TO.N,Net-(J1-Pad14)*%
X155956000Y-131368800D03*
%TO.P,J1,13*%
%TO.N,Net-(J1-Pad13)*%
X151993600Y-131368800D03*
%TO.P,J1,12*%
%TO.N,Net-(J1-Pad12)*%
X148031200Y-131368800D03*
%TO.P,J1,11*%
%TO.N,Net-(J1-Pad11)*%
X144068800Y-131368800D03*
%TO.P,J1,10*%
%TO.N,Net-(J1-Pad10)*%
X140106400Y-131368800D03*
%TO.P,J1,9*%
%TO.N,Net-(J1-Pad9)*%
X136144000Y-131368800D03*
%TO.P,J1,8*%
%TO.N,Net-(J1-Pad8)*%
X132181600Y-131368800D03*
%TO.P,J1,7*%
%TO.N,Net-(J1-Pad7)*%
X128219200Y-131368800D03*
%TO.P,J1,6*%
%TO.N,Net-(J1-Pad6)*%
X124256800Y-131368800D03*
%TO.P,J1,5*%
%TO.N,Net-(J1-Pad5)*%
X120294400Y-131368800D03*
%TO.P,J1,4*%
%TO.N,Net-(J1-Pad4)*%
X116332000Y-131368800D03*
%TO.P,J1,3*%
%TO.N,Net-(J1-Pad3)*%
X112369600Y-131368800D03*
%TO.P,J1,2*%
%TO.N,GND*%
X108407200Y-131368800D03*
%TO.P,J1,1*%
%TO.N,+5V*%
X104444800Y-131368800D03*
%TD*%
D18*
%TO.P,F1,2*%
%TO.N,+5V*%
X100330000Y-120650000D03*
X100330000Y-113030000D03*
%TO.P,F1,1*%
%TO.N,/VCC*%
X100330000Y-100330000D03*
X100330000Y-92710000D03*
%TD*%
D19*
%TO.P,C6,2*%
%TO.N,/C2-*%
X173990000Y-92360000D03*
%TO.P,C6,1*%
%TO.N,Net-(C6-Pad1)*%
X173990000Y-86360000D03*
%TD*%
%TO.P,C5,2*%
%TO.N,GND*%
X126080000Y-85090000D03*
%TO.P,C5,1*%
%TO.N,/V-*%
X132080000Y-85090000D03*
%TD*%
%TO.P,C4,2*%
%TO.N,/C1-*%
X173990000Y-80930000D03*
%TO.P,C4,1*%
%TO.N,/C1+*%
X173990000Y-74930000D03*
%TD*%
%TO.P,C3,2*%
%TO.N,/V+*%
X117760000Y-85090000D03*
%TO.P,C3,1*%
%TO.N,/VCC*%
X111760000Y-85090000D03*
%TD*%
%TO.P,C2,2*%
%TO.N,GND*%
X190150000Y-76200000D03*
%TO.P,C2,1*%
%TO.N,/VCC*%
X184150000Y-76200000D03*
%TD*%
D20*
%TO.P,C1,2*%
%TO.N,GND*%
X107950000Y-120330000D03*
D19*
%TO.P,C1,1*%
%TO.N,/VCC*%
X107950000Y-100330000D03*
%TD*%
D21*
%TO.N,*%
X199390000Y-123190000D03*
X92710000Y-123190000D03*
X199390000Y-54610000D03*
X92710000Y-54610000D03*
%TO.N,GND*%
X121920000Y-68580000D03*
X189230000Y-66040000D03*
X151130000Y-66040000D03*
D22*
%TO.N,/V+*%
X179070000Y-71120000D03*
%TO.N,/V-*%
X167640000Y-80010000D03*
%TO.N,/RTS*%
X144780000Y-83820000D03*
%TO.N,/TxD*%
X144068800Y-123901200D03*
X175260000Y-124460000D03*
%TO.N,/RxD*%
X198120000Y-107950000D03*
X148031200Y-108508800D03*
%TO.N,/DTR*%
X151993600Y-113436400D03*
X194310000Y-113030000D03*
%TO.N,/Rx*%
X186690000Y-116840000D03*
X155956000Y-117094000D03*
%TO.N,/Tx*%
X167640000Y-120650000D03*
X179730400Y-121259600D03*
%TO.N,/STRB*%
X171450000Y-110490000D03*
X183692800Y-110947200D03*
%TO.N,/PullUp*%
X157480000Y-60960000D03*
D21*
%TO.N,/VCC*%
X184150000Y-55880000D03*
X163830000Y-55880000D03*
%TD*%
D23*
%TO.N,*%
X114300000Y-105410000D02*
X111760000Y-105410000D01*
D24*
X109220000Y-106680000D02*
X106680000Y-106680000D01*
X107950000Y-107950000D02*
X107950000Y-105410000D01*
D25*
%TO.N,GND*%
X108407200Y-120787200D02*
X107950000Y-120330000D01*
X108407200Y-131368800D02*
X108407200Y-120787200D01*
X121920000Y-68580000D02*
X124460000Y-66040000D01*
X124460000Y-66040000D02*
X151130000Y-66040000D01*
X189230000Y-66040000D02*
X151130000Y-66040000D01*
D24*
X190500000Y-96520000D02*
X193040000Y-96520000D01*
X193040000Y-96520000D02*
X194310000Y-95250000D01*
X190500000Y-86360000D02*
X193040000Y-86360000D01*
X193040000Y-86360000D02*
X194310000Y-87630000D01*
X194310000Y-87630000D02*
X194310000Y-95250000D01*
D25*
%TO.N,+5V*%
X104444800Y-124764800D02*
X100330000Y-120650000D01*
X104444800Y-131368800D02*
X104444800Y-124764800D01*
D24*
%TO.N,/V+*%
X182774198Y-86360000D02*
X182880000Y-86360000D01*
X131730000Y-71120000D02*
X117760000Y-85090000D01*
X179070000Y-71120000D02*
X131730000Y-71120000D01*
%TO.N,/C1-*%
X181960000Y-88900000D02*
X182880000Y-88900000D01*
X173990000Y-80930000D02*
X181960000Y-88900000D01*
%TO.N,/C1+*%
X182880000Y-83820000D02*
X173990000Y-74930000D01*
%TO.N,/V-*%
X137160000Y-80010000D02*
X132080000Y-85090000D01*
X167640000Y-80010000D02*
X137160000Y-80010000D01*
%TO.N,/C2-*%
X175610000Y-93980000D02*
X173990000Y-92360000D01*
X182880000Y-93980000D02*
X175610000Y-93980000D01*
%TO.N,Net-(C6-Pad1)*%
X179070000Y-91440000D02*
X173990000Y-86360000D01*
X182880000Y-91440000D02*
X179070000Y-91440000D01*
%TO.N,/RTS*%
X182880000Y-101600000D02*
X173990000Y-101600000D01*
X173990000Y-101600000D02*
X168910000Y-96520000D01*
X168910000Y-96520000D02*
X168910000Y-86360000D01*
X168910000Y-86360000D02*
X166370000Y-83820000D01*
X166370000Y-83820000D02*
X144780000Y-83820000D01*
X144780000Y-83820000D02*
X144780000Y-83820000D01*
%TO.N,/TxD*%
X144627600Y-124460000D02*
X144068800Y-123901200D01*
X175260000Y-124460000D02*
X144627600Y-124460000D01*
%TO.N,/RxD*%
X148590000Y-107950000D02*
X148031200Y-108508800D01*
X198120000Y-107950000D02*
X148590000Y-107950000D01*
%TO.N,/DTR*%
X152400000Y-113030000D02*
X151993600Y-113436400D01*
X194310000Y-113030000D02*
X152400000Y-113030000D01*
%TO.N,/Rx*%
X156210000Y-116840000D02*
X155956000Y-117094000D01*
X186690000Y-116840000D02*
X156210000Y-116840000D01*
%TO.N,/Tx*%
X168249600Y-121259600D02*
X167640000Y-120650000D01*
X179730400Y-121259600D02*
X168249600Y-121259600D01*
%TO.N,/STRB*%
X183235600Y-110490000D02*
X183692800Y-110947200D01*
X171450000Y-110490000D02*
X183235600Y-110490000D01*
%TO.N,/PullUp*%
X157480000Y-60960000D02*
X128270000Y-60960000D01*
%TO.N,/TxIn*%
X166370000Y-100330000D02*
X163830000Y-100330000D01*
X170180000Y-104140000D02*
X166370000Y-100330000D01*
X184150000Y-104140000D02*
X170180000Y-104140000D01*
X189230000Y-99060000D02*
X184150000Y-104140000D01*
X190500000Y-99060000D02*
X189230000Y-99060000D01*
D25*
%TO.N,/VCC*%
X115570000Y-60960000D02*
X120650000Y-55880000D01*
X120650000Y-55880000D02*
X163830000Y-55880000D01*
X166370000Y-55880000D02*
X184150000Y-55880000D01*
X163830000Y-55880000D02*
X166370000Y-55880000D01*
%TD*%
D26*
X114279451Y-107937300D02*
X111780549Y-107937300D01*
X112875349Y-105747700D01*
X113184651Y-105747700D01*
X114279451Y-107937300D01*
%TA.AperFunction,NonConductor*%
D27*
G36*
X114279451Y-107937300D02*
G01*
X111780549Y-107937300D01*
X112875349Y-105747700D01*
X113184651Y-105747700D01*
X114279451Y-107937300D01*
G37*
%TD.AperFunction*%
M02*
